<mxfile host="app.diagrams.net" modified="2024-04-22T12:10:41.503Z" agent="Mozilla/5.0 (Windows NT 10.0; Win64; x64) AppleWebKit/537.36 (KHTML, like Gecko) Chrome/124.0.0.0 Safari/537.36" etag="cJ3twsCBaGLwcQ5nEQWE" version="24.2.5" type="device">
  <diagram name="Page-1" id="TrqVNZAssGtXZ2A3O7kV">
    <mxGraphModel dx="896" dy="490" grid="1" gridSize="10" guides="1" tooltips="1" connect="1" arrows="1" fold="1" page="1" pageScale="1" pageWidth="850" pageHeight="1100" math="0" shadow="0">
      <root>
        <mxCell id="0" />
        <mxCell id="1" parent="0" />
        <mxCell id="5RAs_imUKB8V337N3j2a-1" value="Counter" style="rounded=0;whiteSpace=wrap;html=1;" vertex="1" parent="1">
          <mxGeometry x="300" y="390" width="200" height="90" as="geometry" />
        </mxCell>
        <mxCell id="5RAs_imUKB8V337N3j2a-17" style="edgeStyle=orthogonalEdgeStyle;rounded=0;orthogonalLoop=1;jettySize=auto;html=1;entryX=0;entryY=0.5;entryDx=0;entryDy=0;" edge="1" parent="1" source="5RAs_imUKB8V337N3j2a-2" target="5RAs_imUKB8V337N3j2a-1">
          <mxGeometry relative="1" as="geometry" />
        </mxCell>
        <mxCell id="5RAs_imUKB8V337N3j2a-2" value="Increment" style="ellipse;whiteSpace=wrap;html=1;" vertex="1" parent="1">
          <mxGeometry x="100" y="210" width="120" height="80" as="geometry" />
        </mxCell>
        <mxCell id="5RAs_imUKB8V337N3j2a-3" value="Decrement" style="ellipse;whiteSpace=wrap;html=1;" vertex="1" parent="1">
          <mxGeometry x="600" y="200" width="120" height="80" as="geometry" />
        </mxCell>
        <mxCell id="5RAs_imUKB8V337N3j2a-8" style="edgeStyle=orthogonalEdgeStyle;rounded=0;orthogonalLoop=1;jettySize=auto;html=1;" edge="1" parent="1" source="5RAs_imUKB8V337N3j2a-4" target="5RAs_imUKB8V337N3j2a-9">
          <mxGeometry relative="1" as="geometry">
            <mxPoint x="260" y="110" as="targetPoint" />
          </mxGeometry>
        </mxCell>
        <mxCell id="5RAs_imUKB8V337N3j2a-11" value="" style="edgeStyle=orthogonalEdgeStyle;rounded=0;orthogonalLoop=1;jettySize=auto;html=1;" edge="1" parent="1" target="5RAs_imUKB8V337N3j2a-10">
          <mxGeometry relative="1" as="geometry">
            <mxPoint x="424.9999999999998" y="110" as="sourcePoint" />
          </mxGeometry>
        </mxCell>
        <mxCell id="5RAs_imUKB8V337N3j2a-4" value="Main" style="ellipse;whiteSpace=wrap;html=1;" vertex="1" parent="1">
          <mxGeometry x="340" y="70" width="120" height="80" as="geometry" />
        </mxCell>
        <mxCell id="5RAs_imUKB8V337N3j2a-12" style="edgeStyle=orthogonalEdgeStyle;rounded=0;orthogonalLoop=1;jettySize=auto;html=1;" edge="1" parent="1" source="5RAs_imUKB8V337N3j2a-9" target="5RAs_imUKB8V337N3j2a-2">
          <mxGeometry relative="1" as="geometry" />
        </mxCell>
        <mxCell id="5RAs_imUKB8V337N3j2a-9" value="th1" style="ellipse;whiteSpace=wrap;html=1;" vertex="1" parent="1">
          <mxGeometry x="200" y="70" width="120" height="80" as="geometry" />
        </mxCell>
        <mxCell id="5RAs_imUKB8V337N3j2a-10" value="th2" style="ellipse;whiteSpace=wrap;html=1;" vertex="1" parent="1">
          <mxGeometry x="485" y="70" width="120" height="80" as="geometry" />
        </mxCell>
        <mxCell id="5RAs_imUKB8V337N3j2a-13" style="edgeStyle=orthogonalEdgeStyle;rounded=0;orthogonalLoop=1;jettySize=auto;html=1;entryX=0.361;entryY=0.023;entryDx=0;entryDy=0;entryPerimeter=0;" edge="1" parent="1" source="5RAs_imUKB8V337N3j2a-10" target="5RAs_imUKB8V337N3j2a-3">
          <mxGeometry relative="1" as="geometry" />
        </mxCell>
        <mxCell id="5RAs_imUKB8V337N3j2a-20" style="edgeStyle=orthogonalEdgeStyle;rounded=0;orthogonalLoop=1;jettySize=auto;html=1;" edge="1" parent="1" source="5RAs_imUKB8V337N3j2a-16" target="5RAs_imUKB8V337N3j2a-1">
          <mxGeometry relative="1" as="geometry" />
        </mxCell>
        <mxCell id="5RAs_imUKB8V337N3j2a-16" value="lockObj" style="ellipse;whiteSpace=wrap;html=1;" vertex="1" parent="1">
          <mxGeometry x="330" y="210" width="120" height="80" as="geometry" />
        </mxCell>
        <mxCell id="5RAs_imUKB8V337N3j2a-21" value="" style="rounded=0;whiteSpace=wrap;html=1;" vertex="1" parent="1">
          <mxGeometry x="920" y="110" width="120" height="300" as="geometry" />
        </mxCell>
        <mxCell id="5RAs_imUKB8V337N3j2a-26" value="Counter" style="text;html=1;align=center;verticalAlign=middle;whiteSpace=wrap;rounded=0;" vertex="1" parent="1">
          <mxGeometry x="1210" y="210" width="100" height="70" as="geometry" />
        </mxCell>
        <mxCell id="5RAs_imUKB8V337N3j2a-27" value="Nicat" style="ellipse;whiteSpace=wrap;html=1;" vertex="1" parent="1">
          <mxGeometry x="1040" y="220" width="50" height="40" as="geometry" />
        </mxCell>
        <mxCell id="5RAs_imUKB8V337N3j2a-28" value="Thread Lock" style="text;html=1;align=center;verticalAlign=middle;resizable=0;points=[];autosize=1;strokeColor=none;fillColor=none;" vertex="1" parent="1">
          <mxGeometry x="1030" y="60" width="90" height="30" as="geometry" />
        </mxCell>
        <mxCell id="5RAs_imUKB8V337N3j2a-29" value="" style="rounded=0;whiteSpace=wrap;html=1;" vertex="1" parent="1">
          <mxGeometry x="1090" y="110" width="120" height="300" as="geometry" />
        </mxCell>
        <mxCell id="5RAs_imUKB8V337N3j2a-30" value="Eli" style="ellipse;whiteSpace=wrap;html=1;" vertex="1" parent="1">
          <mxGeometry x="1120" y="140" width="70" height="60" as="geometry" />
        </mxCell>
        <mxCell id="5RAs_imUKB8V337N3j2a-31" value="Fuad" style="ellipse;whiteSpace=wrap;html=1;" vertex="1" parent="1">
          <mxGeometry x="940" y="310" width="70" height="60" as="geometry" />
        </mxCell>
        <mxCell id="5RAs_imUKB8V337N3j2a-32" value="DEAD Lock" style="text;html=1;align=center;verticalAlign=middle;resizable=0;points=[];autosize=1;strokeColor=none;fillColor=none;" vertex="1" parent="1">
          <mxGeometry x="1020" y="430" width="90" height="30" as="geometry" />
        </mxCell>
      </root>
    </mxGraphModel>
  </diagram>
</mxfile>
